<mxfile host="app.diagrams.net" modified="2021-05-06T07:32:01.677Z" agent="5.0 (Windows NT 10.0; Win64; x64) AppleWebKit/537.36 (KHTML, like Gecko) Chrome/90.0.4430.93 Safari/537.36" etag="ICuUraqTBLcDsNH-MW3W" version="14.6.10" type="github" pages="2">
  <diagram id="2wl39LY-8DgjkPEdztHy" name="Page-1">
    <mxGraphModel dx="4628" dy="1651" grid="1" gridSize="10" guides="1" tooltips="1" connect="1" arrows="1" fold="1" page="1" pageScale="1" pageWidth="827" pageHeight="1169" math="0" shadow="0">
      <root>
        <mxCell id="0" />
        <mxCell id="1" parent="0" />
        <mxCell id="k7I3OqmfOxLlPGRo2wxs-1" value="Region" style="outlineConnect=0;gradientColor=none;html=1;whiteSpace=wrap;fontSize=12;fontStyle=0;shape=mxgraph.aws4.group;grIcon=mxgraph.aws4.group_region;strokeColor=#879196;fillColor=none;verticalAlign=top;align=left;spacingLeft=30;fontColor=#879196;dashed=1;" parent="1" vertex="1">
          <mxGeometry x="110" y="-50" width="990" height="480" as="geometry" />
        </mxCell>
        <mxCell id="k7I3OqmfOxLlPGRo2wxs-2" value="v" style="outlineConnect=0;gradientColor=none;html=1;whiteSpace=wrap;fontSize=12;fontStyle=0;shape=mxgraph.aws4.group;grIcon=mxgraph.aws4.group_vpc;strokeColor=#879196;fillColor=none;verticalAlign=middle;align=left;spacingLeft=30;fontColor=#879196;dashed=0;" parent="1" vertex="1">
          <mxGeometry x="-2670" y="-540" width="940" height="750" as="geometry" />
        </mxCell>
        <mxCell id="1z7TcN5bg0onfSpd-PEo-6" value="users" style="outlineConnect=0;gradientColor=none;fontColor=#545B64;strokeColor=none;fillColor=#879196;dashed=0;verticalLabelPosition=bottom;verticalAlign=top;align=center;html=1;fontSize=12;fontStyle=0;aspect=fixed;shape=mxgraph.aws4.illustration_users;pointerEvents=1" parent="1" vertex="1">
          <mxGeometry x="-1639.75" y="-700" width="90" height="90" as="geometry" />
        </mxCell>
        <mxCell id="1z7TcN5bg0onfSpd-PEo-7" value="Text" style="text;html=1;align=center;verticalAlign=middle;resizable=0;points=[];autosize=1;strokeColor=none;" parent="1" vertex="1">
          <mxGeometry x="20" y="100" width="40" height="20" as="geometry" />
        </mxCell>
        <mxCell id="1z7TcN5bg0onfSpd-PEo-9" value="" style="edgeStyle=orthogonalEdgeStyle;html=1;endArrow=block;elbow=vertical;startArrow=block;startFill=1;endFill=1;strokeColor=#545B64;rounded=0;" parent="1" source="k7I3OqmfOxLlPGRo2wxs-2" edge="1">
          <mxGeometry width="100" relative="1" as="geometry">
            <mxPoint x="10" y="70" as="sourcePoint" />
            <mxPoint x="110" y="70" as="targetPoint" />
            <Array as="points">
              <mxPoint x="-690" y="120" />
              <mxPoint x="-690" y="60" />
              <mxPoint x="110" y="60" />
            </Array>
          </mxGeometry>
        </mxCell>
        <mxCell id="haOv8oZGCNqtQwgmdrxF-1" value="Available zone a" style="edgeLabel;html=1;align=center;verticalAlign=middle;resizable=0;points=[];" vertex="1" connectable="0" parent="1z7TcN5bg0onfSpd-PEo-9">
          <mxGeometry x="-0.5853" relative="1" as="geometry">
            <mxPoint as="offset" />
          </mxGeometry>
        </mxCell>
        <mxCell id="D5DJdg57mU4PpBL3PrVq-5" style="edgeStyle=orthogonalEdgeStyle;rounded=0;orthogonalLoop=1;jettySize=auto;html=1;exitX=0;exitY=0.25;exitDx=0;exitDy=0;startArrow=none;" parent="1" source="D5DJdg57mU4PpBL3PrVq-6" target="k7I3OqmfOxLlPGRo2wxs-2" edge="1">
          <mxGeometry relative="1" as="geometry">
            <Array as="points">
              <mxPoint x="-1300" y="-577" />
              <mxPoint x="-1300" y="-710" />
              <mxPoint x="-1515" y="-710" />
              <mxPoint x="-1515" y="-165" />
            </Array>
          </mxGeometry>
        </mxCell>
        <mxCell id="D5DJdg57mU4PpBL3PrVq-1" value="" style="rounded=1;arcSize=10;dashed=0;fillColor=none;gradientColor=none;strokeWidth=2;" parent="1" vertex="1">
          <mxGeometry x="-1300" y="-610" width="180" height="200" as="geometry" />
        </mxCell>
        <mxCell id="D5DJdg57mU4PpBL3PrVq-3" value="" style="rounded=1;arcSize=10;dashed=0;fillColor=none;gradientColor=none;strokeWidth=2;" parent="1" vertex="1">
          <mxGeometry x="-1432" y="-185" width="815" height="200" as="geometry" />
        </mxCell>
        <mxCell id="D5DJdg57mU4PpBL3PrVq-4" value="" style="dashed=0;html=1;shape=mxgraph.aws3.permissions;fillColor=#D9A741;gradientColor=none;dashed=0;" parent="1" vertex="1">
          <mxGeometry x="-1210" y="-210" width="30" height="35" as="geometry" />
        </mxCell>
        <mxCell id="D5DJdg57mU4PpBL3PrVq-7" value="" style="rounded=1;arcSize=10;dashed=0;fillColor=none;gradientColor=none;strokeWidth=2;" parent="1" vertex="1">
          <mxGeometry x="-900" y="-580" width="200" height="200" as="geometry" />
        </mxCell>
        <mxCell id="D5DJdg57mU4PpBL3PrVq-9" style="edgeStyle=orthogonalEdgeStyle;rounded=0;orthogonalLoop=1;jettySize=auto;html=1;exitX=0.5;exitY=1;exitDx=0;exitDy=0;exitPerimeter=0;" parent="1" target="D5DJdg57mU4PpBL3PrVq-6" edge="1">
          <mxGeometry relative="1" as="geometry">
            <mxPoint x="-835" y="-335" as="sourcePoint" />
          </mxGeometry>
        </mxCell>
        <mxCell id="D5DJdg57mU4PpBL3PrVq-10" value="" style="rounded=1;arcSize=10;dashed=0;fillColor=none;gradientColor=none;strokeWidth=2;" parent="1" vertex="1">
          <mxGeometry x="-1360" y="-180" width="200" height="200" as="geometry" />
        </mxCell>
        <mxCell id="D5DJdg57mU4PpBL3PrVq-11" value="" style="dashed=0;html=1;shape=mxgraph.aws3.permissions;fillColor=#D9A741;gradientColor=none;dashed=0;" parent="1" vertex="1">
          <mxGeometry x="-1300" y="-20" width="30" height="35" as="geometry" />
        </mxCell>
        <mxCell id="D5DJdg57mU4PpBL3PrVq-12" value="" style="rounded=1;arcSize=10;dashed=0;fillColor=none;gradientColor=none;strokeWidth=2;" parent="1" vertex="1">
          <mxGeometry x="-945" y="-190" width="200" height="200" as="geometry" />
        </mxCell>
        <mxCell id="D5DJdg57mU4PpBL3PrVq-13" value="" style="dashed=0;html=1;shape=mxgraph.aws3.permissions;fillColor=#D9A741;gradientColor=none;dashed=0;" parent="1" vertex="1">
          <mxGeometry x="-750" y="-137.5" width="30" height="35" as="geometry" />
        </mxCell>
        <mxCell id="D5DJdg57mU4PpBL3PrVq-14" value="" style="outlineConnect=0;dashed=0;verticalLabelPosition=bottom;verticalAlign=top;align=center;html=1;shape=mxgraph.aws3.route_53;fillColor=#F58536;gradientColor=none;" parent="1" vertex="1">
          <mxGeometry x="-1630" y="-430" width="70.5" height="110" as="geometry" />
        </mxCell>
        <mxCell id="D5DJdg57mU4PpBL3PrVq-15" value="Route 53" style="text;html=1;align=center;verticalAlign=middle;resizable=0;points=[];autosize=1;strokeColor=none;" parent="1" vertex="1">
          <mxGeometry x="-1630" y="-310" width="60" height="20" as="geometry" />
        </mxCell>
        <mxCell id="D5DJdg57mU4PpBL3PrVq-16" value="" style="verticalLabelPosition=bottom;html=1;verticalAlign=top;strokeWidth=1;align=center;outlineConnect=0;dashed=0;outlineConnect=0;shape=mxgraph.aws3d.cloudfront;fillColor=#ECECEC;strokeColor=#5E5E5E;aspect=fixed;" parent="1" vertex="1">
          <mxGeometry x="-1630" y="-143" width="103.8" height="169.79999999999998" as="geometry" />
        </mxCell>
        <mxCell id="D5DJdg57mU4PpBL3PrVq-17" value="cloudfront" style="text;html=1;align=center;verticalAlign=middle;resizable=0;points=[];autosize=1;strokeColor=none;" parent="1" vertex="1">
          <mxGeometry x="-1610" y="40" width="70" height="20" as="geometry" />
        </mxCell>
        <mxCell id="D5DJdg57mU4PpBL3PrVq-18" value="" style="edgeStyle=orthogonalEdgeStyle;html=1;endArrow=block;elbow=vertical;startArrow=block;startFill=1;endFill=1;strokeColor=#545B64;rounded=0;" parent="1" edge="1">
          <mxGeometry width="100" relative="1" as="geometry">
            <mxPoint x="-1509.5" y="-250" as="sourcePoint" />
            <mxPoint x="-1429.5" y="-260" as="targetPoint" />
            <Array as="points">
              <mxPoint x="-1509" y="-230" />
              <mxPoint x="-1429" y="-230" />
            </Array>
          </mxGeometry>
        </mxCell>
        <mxCell id="D5DJdg57mU4PpBL3PrVq-19" value="" style="outlineConnect=0;fontColor=#232F3E;gradientColor=none;fillColor=#232F3E;strokeColor=none;dashed=0;verticalLabelPosition=bottom;verticalAlign=top;align=center;html=1;fontSize=12;fontStyle=0;aspect=fixed;pointerEvents=1;shape=mxgraph.aws4.internet_alt2;" parent="1" vertex="1">
          <mxGeometry x="-1500" y="-303.99" width="78" height="78" as="geometry" />
        </mxCell>
        <mxCell id="D5DJdg57mU4PpBL3PrVq-20" value="Public subnet" style="points=[[0,0],[0.25,0],[0.5,0],[0.75,0],[1,0],[1,0.25],[1,0.5],[1,0.75],[1,1],[0.75,1],[0.5,1],[0.25,1],[0,1],[0,0.75],[0,0.5],[0,0.25]];outlineConnect=0;gradientColor=none;html=1;whiteSpace=wrap;fontSize=12;fontStyle=0;shape=mxgraph.aws4.group;grIcon=mxgraph.aws4.group_security_group;grStroke=0;strokeColor=#248814;fillColor=#E9F3E6;verticalAlign=top;align=left;spacingLeft=30;fontColor=#248814;dashed=0;" parent="1" vertex="1">
          <mxGeometry x="-1290" y="-584" width="130" height="130" as="geometry" />
        </mxCell>
        <mxCell id="D5DJdg57mU4PpBL3PrVq-22" value="Public subnet" style="points=[[0,0],[0.25,0],[0.5,0],[0.75,0],[1,0],[1,0.25],[1,0.5],[1,0.75],[1,1],[0.75,1],[0.5,1],[0.25,1],[0,1],[0,0.75],[0,0.5],[0,0.25]];outlineConnect=0;gradientColor=none;html=1;whiteSpace=wrap;fontSize=12;fontStyle=0;shape=mxgraph.aws4.group;grIcon=mxgraph.aws4.group_security_group;grStroke=0;strokeColor=#248814;fillColor=#E9F3E6;verticalAlign=top;align=left;spacingLeft=30;fontColor=#248814;dashed=0;" parent="1" vertex="1">
          <mxGeometry x="-870" y="-567.5" width="150" height="145" as="geometry" />
        </mxCell>
        <mxCell id="D5DJdg57mU4PpBL3PrVq-23" value="internet gateway" style="text;html=1;align=center;verticalAlign=middle;resizable=0;points=[];autosize=1;strokeColor=none;" parent="1" vertex="1">
          <mxGeometry x="-1522" y="-220.91" width="100" height="20" as="geometry" />
        </mxCell>
        <mxCell id="D5DJdg57mU4PpBL3PrVq-24" value="" style="outlineConnect=0;dashed=0;verticalLabelPosition=bottom;verticalAlign=top;align=center;html=1;shape=mxgraph.aws3.vpc_nat_gateway;fillColor=#F58536;gradientColor=none;" parent="1" vertex="1">
          <mxGeometry x="-1108" y="-235" width="69" height="72" as="geometry" />
        </mxCell>
        <mxCell id="D5DJdg57mU4PpBL3PrVq-25" value="NAT" style="text;html=1;align=center;verticalAlign=middle;resizable=0;points=[];autosize=1;strokeColor=none;" parent="1" vertex="1">
          <mxGeometry x="-1093.5" y="-163" width="40" height="20" as="geometry" />
        </mxCell>
        <mxCell id="D5DJdg57mU4PpBL3PrVq-26" value="Private subnet" style="points=[[0,0],[0.25,0],[0.5,0],[0.75,0],[1,0],[1,0.25],[1,0.5],[1,0.75],[1,1],[0.75,1],[0.5,1],[0.25,1],[0,1],[0,0.75],[0,0.5],[0,0.25]];outlineConnect=0;gradientColor=none;html=1;whiteSpace=wrap;fontSize=12;fontStyle=0;shape=mxgraph.aws4.group;grIcon=mxgraph.aws4.group_security_group;grStroke=0;strokeColor=#147EBA;fillColor=#E6F2F8;verticalAlign=top;align=left;spacingLeft=30;fontColor=#147EBA;dashed=0;" parent="1" vertex="1">
          <mxGeometry x="-1330" y="-132" width="130" height="130" as="geometry" />
        </mxCell>
        <mxCell id="D5DJdg57mU4PpBL3PrVq-27" value="Private subnet" style="points=[[0,0],[0.25,0],[0.5,0],[0.75,0],[1,0],[1,0.25],[1,0.5],[1,0.75],[1,1],[0.75,1],[0.5,1],[0.25,1],[0,1],[0,0.75],[0,0.5],[0,0.25]];outlineConnect=0;gradientColor=none;html=1;whiteSpace=wrap;fontSize=12;fontStyle=0;shape=mxgraph.aws4.group;grIcon=mxgraph.aws4.group_security_group;grStroke=0;strokeColor=#147EBA;fillColor=#E6F2F8;verticalAlign=top;align=left;spacingLeft=30;fontColor=#147EBA;dashed=0;" parent="1" vertex="1">
          <mxGeometry x="-910" y="-160" width="150" height="140" as="geometry" />
        </mxCell>
        <mxCell id="D5DJdg57mU4PpBL3PrVq-28" value="autoscaling" style="outlineConnect=0;fontColor=#232F3E;gradientColor=none;fillColor=#D05C17;strokeColor=none;dashed=0;verticalLabelPosition=bottom;verticalAlign=top;align=center;html=1;fontSize=12;fontStyle=0;aspect=fixed;pointerEvents=1;shape=mxgraph.aws4.auto_scaling2;" parent="1" vertex="1">
          <mxGeometry x="-1020" y="-320" width="96" height="96" as="geometry" />
        </mxCell>
        <mxCell id="D5DJdg57mU4PpBL3PrVq-29" value="S3 bucket" style="shape=image;html=1;verticalAlign=top;verticalLabelPosition=bottom;labelBackgroundColor=#ffffff;imageAspect=0;aspect=fixed;image=https://cdn2.iconfinder.com/data/icons/amazon-aws-stencils/100/Storage__Content_Delivery_Amazon_S3_Bucket_with_Objects-128.png" parent="1" vertex="1">
          <mxGeometry x="-700" y="-98" width="68" height="68" as="geometry" />
        </mxCell>
        <mxCell id="D5DJdg57mU4PpBL3PrVq-32" value="" style="edgeStyle=orthogonalEdgeStyle;rounded=0;orthogonalLoop=1;jettySize=auto;html=1;" parent="1" source="D5DJdg57mU4PpBL3PrVq-30" target="D5DJdg57mU4PpBL3PrVq-31" edge="1">
          <mxGeometry relative="1" as="geometry">
            <Array as="points">
              <mxPoint x="-490" y="-85" />
              <mxPoint x="-490" y="-260" />
              <mxPoint x="-578" y="-260" />
            </Array>
          </mxGeometry>
        </mxCell>
        <mxCell id="D5DJdg57mU4PpBL3PrVq-30" value="" style="points=[[0,0,0],[0.25,0,0],[0.5,0,0],[0.75,0,0],[1,0,0],[0,1,0],[0.25,1,0],[0.5,1,0],[0.75,1,0],[1,1,0],[0,0.25,0],[0,0.5,0],[0,0.75,0],[1,0.25,0],[1,0.5,0],[1,0.75,0]];outlineConnect=0;fontColor=#232F3E;gradientColor=#F34482;gradientDirection=north;fillColor=#BC1356;strokeColor=#ffffff;dashed=0;verticalLabelPosition=bottom;verticalAlign=top;align=center;html=1;fontSize=12;fontStyle=0;aspect=fixed;shape=mxgraph.aws4.resourceIcon;resIcon=mxgraph.aws4.sns;" parent="1" vertex="1">
          <mxGeometry x="-617" y="-124" width="78" height="78" as="geometry" />
        </mxCell>
        <mxCell id="haOv8oZGCNqtQwgmdrxF-7" style="edgeStyle=isometricEdgeStyle;rounded=0;orthogonalLoop=1;jettySize=auto;html=1;" edge="1" parent="1" source="D5DJdg57mU4PpBL3PrVq-31">
          <mxGeometry relative="1" as="geometry">
            <mxPoint x="-620" y="-270" as="targetPoint" />
          </mxGeometry>
        </mxCell>
        <mxCell id="D5DJdg57mU4PpBL3PrVq-31" value="sns" style="points=[[0,0,0],[0.25,0,0],[0.5,0,0],[0.75,0,0],[1,0,0],[0,1,0],[0.25,1,0],[0.5,1,0],[0.75,1,0],[1,1,0],[0,0.25,0],[0,0.5,0],[0,0.75,0],[1,0.25,0],[1,0.5,0],[1,0.75,0]];outlineConnect=0;fontColor=#232F3E;gradientColor=#F34482;gradientDirection=north;fillColor=#BC1356;strokeColor=#ffffff;dashed=0;verticalLabelPosition=bottom;verticalAlign=top;align=center;html=1;fontSize=12;fontStyle=0;aspect=fixed;shape=mxgraph.aws4.resourceIcon;resIcon=mxgraph.aws4.sns;" parent="1" vertex="1">
          <mxGeometry x="-617" y="-132" width="78" height="78" as="geometry" />
        </mxCell>
        <mxCell id="D5DJdg57mU4PpBL3PrVq-34" value="" style="edgeStyle=elbowEdgeStyle;rounded=0;orthogonalLoop=1;jettySize=auto;html=1;elbow=vertical;" parent="1" source="D5DJdg57mU4PpBL3PrVq-33" target="D5DJdg57mU4PpBL3PrVq-26" edge="1">
          <mxGeometry relative="1" as="geometry">
            <Array as="points">
              <mxPoint x="-1400" y="-320" />
              <mxPoint x="-1320" y="-320" />
            </Array>
          </mxGeometry>
        </mxCell>
        <mxCell id="D5DJdg57mU4PpBL3PrVq-33" value="" style="verticalLabelPosition=bottom;html=1;verticalAlign=top;strokeWidth=1;align=center;outlineConnect=0;dashed=0;outlineConnect=0;shape=mxgraph.aws3d.elasticLoadBalancing;fillColor=#ECECEC;strokeColor=#5E5E5E;aspect=fixed;" parent="1" vertex="1">
          <mxGeometry x="-1286" y="-340.00000000000006" width="92" height="88.17" as="geometry" />
        </mxCell>
        <mxCell id="D5DJdg57mU4PpBL3PrVq-35" value="ELB load balancer" style="text;html=1;align=center;verticalAlign=middle;resizable=0;points=[];autosize=1;strokeColor=none;" parent="1" vertex="1">
          <mxGeometry x="-1305" y="-250" width="110" height="20" as="geometry" />
        </mxCell>
        <mxCell id="D5DJdg57mU4PpBL3PrVq-36" value="" style="edgeStyle=orthogonalEdgeStyle;html=1;endArrow=block;elbow=vertical;startArrow=block;startFill=1;endFill=1;strokeColor=#545B64;rounded=0;" parent="1" source="D5DJdg57mU4PpBL3PrVq-19" edge="1">
          <mxGeometry width="100" relative="1" as="geometry">
            <mxPoint x="-1422" y="-264.99" as="sourcePoint" />
            <mxPoint x="-1290" y="-300" as="targetPoint" />
            <Array as="points">
              <mxPoint x="-1356" y="-265" />
              <mxPoint x="-1356" y="-310" />
              <mxPoint x="-1290" y="-310" />
            </Array>
          </mxGeometry>
        </mxCell>
        <mxCell id="D5DJdg57mU4PpBL3PrVq-37" value="" style="edgeStyle=orthogonalEdgeStyle;html=1;endArrow=none;elbow=vertical;startArrow=none;startFill=0;strokeColor=#545B64;rounded=0;entryX=0.5;entryY=1;entryDx=0;entryDy=0;" parent="1" source="D5DJdg57mU4PpBL3PrVq-42" target="D5DJdg57mU4PpBL3PrVq-20" edge="1">
          <mxGeometry width="100" relative="1" as="geometry">
            <mxPoint x="-1294" y="-370" as="sourcePoint" />
            <mxPoint x="-1194" y="-370" as="targetPoint" />
            <Array as="points">
              <mxPoint x="-1200" y="-340" />
              <mxPoint x="-1290" y="-340" />
              <mxPoint x="-1290" y="-370" />
              <mxPoint x="-1205" y="-370" />
            </Array>
          </mxGeometry>
        </mxCell>
        <mxCell id="D5DJdg57mU4PpBL3PrVq-39" value="Instance2" style="fontStyle=0;html=0;" parent="1" vertex="1">
          <mxGeometry x="-850" y="-422" width="120" height="40" as="geometry" />
        </mxCell>
        <mxCell id="D5DJdg57mU4PpBL3PrVq-40" value="Instance1 value" style="fontStyle=0;html=0;" parent="1" vertex="1">
          <mxGeometry x="-2300" y="-360" width="120" height="40" as="geometry" />
        </mxCell>
        <mxCell id="D5DJdg57mU4PpBL3PrVq-43" value="instance 3" style="fontStyle=0;html=0;" parent="1" vertex="1">
          <mxGeometry x="-1305" y="-40" width="120" height="40" as="geometry" />
        </mxCell>
        <mxCell id="D5DJdg57mU4PpBL3PrVq-44" value="Instance4" style="fontStyle=0;html=0;" parent="1" vertex="1">
          <mxGeometry x="-910" y="-50" width="120" height="40" as="geometry" />
        </mxCell>
        <mxCell id="D5DJdg57mU4PpBL3PrVq-45" value="EBS" style="shape=image;html=1;verticalAlign=top;verticalLabelPosition=bottom;labelBackgroundColor=#ffffff;imageAspect=0;aspect=fixed;image=https://cdn2.iconfinder.com/data/icons/amazon-aws-stencils/100/Storage__Content_Delivery_Amazon_EBS_Snapshot-128.png" parent="1" vertex="1">
          <mxGeometry x="-1108" y="-590" width="130" height="130" as="geometry" />
        </mxCell>
        <mxCell id="D5DJdg57mU4PpBL3PrVq-47" value="Cloudwatch" style="shape=image;html=1;verticalAlign=top;verticalLabelPosition=bottom;labelBackgroundColor=#ffffff;imageAspect=0;aspect=fixed;image=https://cdn2.iconfinder.com/data/icons/smart-watch-outline-filled-1/32/Smart_Watch__Cloud_Weather-128.png" parent="1" vertex="1">
          <mxGeometry x="-660" y="-400" width="128" height="128" as="geometry" />
        </mxCell>
        <mxCell id="D5DJdg57mU4PpBL3PrVq-48" value="" style="outlineConnect=0;fontColor=#232F3E;gradientColor=none;fillColor=#3334B9;strokeColor=none;dashed=0;verticalLabelPosition=bottom;verticalAlign=top;align=center;html=1;fontSize=12;fontStyle=0;aspect=fixed;pointerEvents=1;shape=mxgraph.aws4.rds_instance_alt;" parent="1" vertex="1">
          <mxGeometry x="-1140" y="-63" width="63" height="63" as="geometry" />
        </mxCell>
        <mxCell id="D5DJdg57mU4PpBL3PrVq-49" value="" style="outlineConnect=0;fontColor=#232F3E;gradientColor=none;fillColor=#3334B9;strokeColor=none;dashed=0;verticalLabelPosition=bottom;verticalAlign=top;align=center;html=1;fontSize=12;fontStyle=0;aspect=fixed;pointerEvents=1;shape=mxgraph.aws4.rds_postgresql_instance;" parent="1" vertex="1">
          <mxGeometry x="-700" y="-163" width="58" height="58" as="geometry" />
        </mxCell>
        <mxCell id="D5DJdg57mU4PpBL3PrVq-53" value="" style="edgeStyle=isometricEdgeStyle;rounded=0;orthogonalLoop=1;jettySize=auto;html=1;" parent="1" source="D5DJdg57mU4PpBL3PrVq-50" target="D5DJdg57mU4PpBL3PrVq-19" edge="1">
          <mxGeometry relative="1" as="geometry" />
        </mxCell>
        <mxCell id="D5DJdg57mU4PpBL3PrVq-50" value="" style="outlineConnect=0;fontColor=#232F3E;gradientColor=none;fillColor=#C7131F;strokeColor=none;dashed=0;verticalLabelPosition=bottom;verticalAlign=top;align=center;html=1;fontSize=12;fontStyle=0;aspect=fixed;pointerEvents=1;shape=mxgraph.aws4.addon;" parent="1" vertex="1">
          <mxGeometry x="-1500" y="-460" width="78" height="40" as="geometry" />
        </mxCell>
        <mxCell id="D5DJdg57mU4PpBL3PrVq-52" value="EFS" style="edgeStyle=isometricEdgeStyle;rounded=0;orthogonalLoop=1;jettySize=auto;html=1;" parent="1" source="D5DJdg57mU4PpBL3PrVq-51" target="D5DJdg57mU4PpBL3PrVq-45" edge="1">
          <mxGeometry relative="1" as="geometry" />
        </mxCell>
        <mxCell id="D5DJdg57mU4PpBL3PrVq-51" value="" style="points=[[0,0,0],[0.25,0,0],[0.5,0,0],[0.75,0,0],[1,0,0],[0,1,0],[0.25,1,0],[0.5,1,0],[0.75,1,0],[1,1,0],[0,0.25,0],[0,0.5,0],[0,0.75,0],[1,0.25,0],[1,0.5,0],[1,0.75,0]];outlineConnect=0;fontColor=#232F3E;gradientColor=#60A337;gradientDirection=north;fillColor=#277116;strokeColor=#ffffff;dashed=0;verticalLabelPosition=bottom;verticalAlign=top;align=center;html=1;fontSize=12;fontStyle=0;aspect=fixed;shape=mxgraph.aws4.resourceIcon;resIcon=mxgraph.aws4.efs_infrequentaccess;" parent="1" vertex="1">
          <mxGeometry x="-978" y="-630" width="78" height="78" as="geometry" />
        </mxCell>
        <mxCell id="D5DJdg57mU4PpBL3PrVq-54" value="IAM&amp;nbsp;" style="text;html=1;align=center;verticalAlign=middle;resizable=0;points=[];autosize=1;strokeColor=none;" parent="1" vertex="1">
          <mxGeometry x="-1500" y="-400" width="40" height="20" as="geometry" />
        </mxCell>
        <mxCell id="haOv8oZGCNqtQwgmdrxF-3" value="Available zone" style="text;html=1;align=center;verticalAlign=middle;resizable=0;points=[];autosize=1;strokeColor=none;" vertex="1" parent="1">
          <mxGeometry x="-810" y="-235" width="90" height="20" as="geometry" />
        </mxCell>
        <mxCell id="D5DJdg57mU4PpBL3PrVq-42" value="instance 1(EC2)" style="fontStyle=0;html=0;" parent="1" vertex="1">
          <mxGeometry x="-1280" y="-450" width="120" height="40" as="geometry" />
        </mxCell>
        <mxCell id="haOv8oZGCNqtQwgmdrxF-4" value="" style="edgeStyle=orthogonalEdgeStyle;html=1;endArrow=none;elbow=vertical;startArrow=openThin;startFill=0;strokeColor=#545B64;rounded=0;entryX=0.5;entryY=1;entryDx=0;entryDy=0;" edge="1" parent="1" source="D5DJdg57mU4PpBL3PrVq-6" target="D5DJdg57mU4PpBL3PrVq-42">
          <mxGeometry width="100" relative="1" as="geometry">
            <mxPoint x="-1200" y="-350" as="sourcePoint" />
            <mxPoint x="-1225" y="-454" as="targetPoint" />
            <Array as="points" />
          </mxGeometry>
        </mxCell>
        <mxCell id="haOv8oZGCNqtQwgmdrxF-5" value="VPC" style="text;html=1;align=center;verticalAlign=middle;resizable=0;points=[];autosize=1;strokeColor=none;" vertex="1" parent="1">
          <mxGeometry x="-1510" y="-670" width="40" height="20" as="geometry" />
        </mxCell>
        <mxCell id="D5DJdg57mU4PpBL3PrVq-6" value="C" style="rounded=1;arcSize=10;dashed=0;fillColor=none;gradientColor=none;strokeWidth=2;" parent="1" vertex="1">
          <mxGeometry x="-1452" y="-670" width="810" height="290" as="geometry" />
        </mxCell>
        <mxCell id="haOv8oZGCNqtQwgmdrxF-6" value="" style="edgeStyle=orthogonalEdgeStyle;rounded=0;orthogonalLoop=1;jettySize=auto;html=1;exitX=0;exitY=0.25;exitDx=0;exitDy=0;endArrow=none;" edge="1" parent="1" source="D5DJdg57mU4PpBL3PrVq-1" target="D5DJdg57mU4PpBL3PrVq-6">
          <mxGeometry relative="1" as="geometry">
            <mxPoint x="-1300" y="-560" as="sourcePoint" />
            <mxPoint x="-1730" y="-165" as="targetPoint" />
            <Array as="points" />
          </mxGeometry>
        </mxCell>
      </root>
    </mxGraphModel>
  </diagram>
  <diagram id="LNPu_5dd7cSWn2oLWFn8" name="Page-2">
    <mxGraphModel dx="1320" dy="516" grid="1" gridSize="10" guides="1" tooltips="1" connect="1" arrows="1" fold="1" page="1" pageScale="1" pageWidth="827" pageHeight="1169" math="0" shadow="0">
      <root>
        <mxCell id="L2LeDY4V5jgp04XvkIoK-0" />
        <mxCell id="L2LeDY4V5jgp04XvkIoK-1" parent="L2LeDY4V5jgp04XvkIoK-0" />
      </root>
    </mxGraphModel>
  </diagram>
</mxfile>
